<?xml version="1.0"?>
<svg xmlns="http://www.w3.org/2000/svg" id="Layer_5" enable-background="new 0 0 64 64" height="512px" viewBox="0 0 64 64" width="512px"><g><g><path d="m21.764 5-.211.105c-2.478 1.24-5.253 1.895-8.025 1.895h-1.528c-2.757 0-5 2.243-5 5 0 2.414 1.721 4.434 4 4.899v5.687c0 1.331 1.083 2.414 2.414 2.414h3.172c1.331 0 2.414-1.083 2.414-2.414 0-.645-.251-1.251-.707-1.707l-1.172-1.172c-.077-.077-.121-.184-.121-.293v-2.065c1.578.312 3.116.827 4.553 1.546l.211.105h5.236v-14zm-12.764 7c0-1.654 1.346-3 3-3h1.528c2.552 0 5.105-.504 7.472-1.459v8.918c-2.367-.955-4.92-1.459-7.472-1.459h-1.528c-1.654 0-3-1.346-3-3zm6.707 9.121 1.172 1.172c.077.077.121.184.121.293 0 .228-.186.414-.414.414h-3.172c-.228 0-.414-.186-.414-.414v-5.586h.528c.491 0 .982.028 1.472.069v2.345c0 .645.251 1.251.707 1.707zm9.293-4.121h-2v-10h2z" data-original="#000000" class="active-path" data-old_color="#000000" fill="#666"/><path d="m40 30c-1.103 0-2-.897-2-2h-2c0 2.206 1.794 4 4 4s4-1.794 4-4h-2c0 1.103-.897 2-2 2z" data-original="#000000" class="active-path" data-old_color="#000000" fill="#666"/><circle cx="43" cy="25" r="1" data-original="#000000" class="active-path" data-old_color="#000000" fill="#666"/><circle cx="37" cy="25" r="1" data-original="#000000" class="active-path" data-old_color="#000000" fill="#666"/><path d="m58 53h-1v-8.227c0-2.369-1.176-4.479-3.029-5.752-.133-1.206-.754-1.911-1.224-2.439-.45-.507-.747-.841-.747-1.587 0-.745.297-1.079.748-1.585.528-.595 1.252-1.41 1.252-2.914s-.724-2.318-1.253-2.913c-.45-.506-.747-.84-.747-1.583v-5c0-6.617-5.383-12-12-12-2.613 0-5.027.849-7 2.273v-5.273c0-2.757-2.243-5-5-5h-22c-2.757 0-5 2.243-5 5v18c0 2.757 2.243 5 5 5h6.667l7.334 5.501c.43.322.962.499 1.499.499 1.378 0 2.5-1.122 2.5-2.5v-3.5h2.289c-.172.41-.289.896-.289 1.496 0 1.505.724 2.319 1.252 2.914.451.506.748.84.748 1.585 0 .746-.297 1.08-.748 1.587-.469.528-1.09 1.233-1.224 2.439-1.852 1.273-3.028 3.383-3.028 5.752v8.227h-13.181l-7.233 2.712c-.949.355-1.586 1.275-1.586 2.288s.637 1.933 1.585 2.288l7.234 2.712h48.181c2.757 0 5-2.243 5-5s-2.243-5-5-5zm-6.747-24.088c.45.506.747.84.747 1.583 0 .745-.297 1.079-.747 1.585-.529.595-1.253 1.41-1.253 2.915 0 1.473.692 2.283 1.217 2.875l-7.217-1.665v-1.287c1.828-1.061 3.195-2.823 3.737-4.918h.263c1.2 0 2.265-.542 2.999-1.381.087.103.173.202.254.293zm-22.506 3.169c-.45-.506-.747-.841-.747-1.585s.297-1.078.747-1.583c.081-.091.167-.19.254-.293.734.838 1.799 1.38 2.999 1.38h.263c.542 2.095 1.909 3.856 3.737 4.918v1.287l-7.217 1.665c.525-.592 1.217-1.402 1.217-2.875 0-1.505-.724-2.32-1.253-2.914zm3.253-4.081c-1.103 0-2-.897-2-2s.897-2 2-2zm8 6c-3.309 0-6-2.691-6-6v-4c0-1.551 1.183-2.831 2.694-2.984 2.699 1.926 5.989 2.984 9.306 2.984v4c0 3.309-2.691 6-6 6zm-3.409 4.121 2.089 2.786-2.099 2.099-1.032-4.644zm3.409 1.212-2-2.667v-.93c.641.167 1.308.264 2 .264s1.359-.097 2-.263v.93zm3.409-1.212 1.042.24-1.032 4.644-2.099-2.099zm4.591-14.121c1.103 0 2 .897 2 2s-.897 2-2 2zm2-3v1.556c-.591-.344-1.268-.556-2-.556h-1-1c-3.009 0-5.992-.995-8.4-2.8l-.267-.2h-.333c-2.045 0-3.802 1.237-4.576 3h-.424c-.732 0-1.409.212-2 .556v-1.556c0-5.514 4.486-10 10-10s10 4.486 10 10zm-28 6v5.5c0 .385-.492.629-.8.4l-7.867-5.9h-7.333c-1.654 0-3-1.346-3-3v-18c0-1.654 1.346-3 3-3h22c1.654 0 3 1.346 3 3v7.089c-1.861 2.115-3 4.879-3 7.911v5c0 .436-.111.729-.286 1zm3 17.773c0-2.342 1.594-4.345 3.876-4.872l4.725-1.091 1.818 8.184 3.581-3.58v3.586h2v-3.586l3.581 3.581 1.818-8.184 4.725 1.091c2.282.526 3.876 2.529 3.876 4.871v8.227h-4v-8h-2v8h-18v-8h-2v8h-4zm-14 14.227h40v2h-40zm40-2h-40v-2h40zm-48 1c0-.184.115-.35.288-.415l5.712-2.142v5.114l-5.713-2.142c-.172-.065-.287-.231-.287-.415zm55 3h-5v-6h5c1.654 0 3 1.346 3 3s-1.346 3-3 3z" data-original="#000000" class="active-path" data-old_color="#000000" fill="#666"/></g></g> </svg>
